<svg xmlns="http://www.w3.org/2000/svg" viewBox="0 0 51.96 11.74"><defs><style>.cls-1{fill:#0d2bff;}</style></defs><g id="Layer_2" data-name="Layer 2"><g id="Layer_2-2" data-name="Layer 2"><path class="cls-1" d="M26.57,11.14l-1.42-.25a.35.35,0,0,0-.25,0,5.9,5.9,0,0,1-2.21.81.49.49,0,0,1-.53-.2.54.54,0,0,1,0-.55c.21-.44.39-.89.59-1.33a.2.2,0,0,0-.05-.24,5.56,5.56,0,1,1,5,1.6C27.35,11.07,27,11.09,26.57,11.14Zm-3.13-.56.13,0c.33-.17.67-.32,1-.52a.77.77,0,0,1,.68-.09,5.8,5.8,0,0,0,1.23.23,4.63,4.63,0,1,0-4.4-4.72,4.52,4.52,0,0,0,1.46,3.47.6.6,0,0,1,.2.68C23.63,9.91,23.54,10.23,23.44,10.58Z"/><path class="cls-1" d="M0,3.66c0-.25.07-.52.13-.77A3.58,3.58,0,0,1,2.58.19a3.33,3.33,0,0,1,3.66,1c.12.12.23.26.35.4.11-.13.22-.27.34-.4A3.39,3.39,0,0,1,9,.05a3.47,3.47,0,0,1,3.23,1.21,4.08,4.08,0,0,1,.89,3.42,4.78,4.78,0,0,1-1,2.15A14.44,14.44,0,0,1,10,9.07L7.15,11.5a.77.77,0,0,1-1.09,0C4.84,10.46,3.61,9.4,2.41,8.33A9.2,9.2,0,0,1,.79,6.48,4.69,4.69,0,0,1,0,4.34a.29.29,0,0,0,0-.09ZM6.59,11l.07-.07L9.56,8.4a13.83,13.83,0,0,0,1.92-2,4.11,4.11,0,0,0,.88-1.93A3.43,3.43,0,0,0,11.82,2a2.72,2.72,0,0,0-4.29-.32,4.11,4.11,0,0,0-.48.62.51.51,0,0,1-.92,0,.5.5,0,0,0-.08-.12,3.44,3.44,0,0,0-.82-.88A2.72,2.72,0,0,0,1.39,2a3.45,3.45,0,0,0-.15,3.75A6.35,6.35,0,0,0,2.6,7.44c.74.69,1.5,1.36,2.25,2C5.42,10,6,10.45,6.59,11Z"/><path class="cls-1" d="M52,.87c-.22.67-.44,1.35-.67,2Q49.94,7,48.58,11a1.27,1.27,0,0,1-.23.43A.84.84,0,0,1,47,11.29l-2.09-4a.37.37,0,0,0-.17-.16L40.73,5a.85.85,0,0,1-.5-.83.78.78,0,0,1,.55-.75c.3-.12.61-.21.92-.32l9.12-3A2.46,2.46,0,0,1,51.11,0h.28a.73.73,0,0,1,.4.23c.07.11.11.23.17.34Zm-.91.57,0,0L51,1.48l-5.4,5.39c-.06.06,0,.11,0,.18C46,8,46.5,8.88,47,9.8c.19.37.37.74.57,1.11a.34.34,0,0,0,.2.13s.1-.08.14-.14a.59.59,0,0,0,.06-.16c.94-2.83,1.89-5.66,2.83-8.49ZM50.54.93v0l-.12,0L41.78,3.82,41,4.08a.23.23,0,0,0-.12.14A.58.58,0,0,0,41,4.4l.07,0,3.78,1.95a.18.18,0,0,0,.25,0L50.45,1Z"/></g></g></svg>