<svg xmlns="http://www.w3.org/2000/svg" viewBox="0 0 943.97 1260.05"><defs><style>.cls-1{fill:#2d2d2d;}.cls-2{fill:#fff;}</style></defs><g id="Layer_2" data-name="Layer 2"><g id="Layer_1-2" data-name="Layer 1"><rect class="cls-1" x="409.57" y="25.85" width="124.83" height="124.83" transform="translate(200.66 -307.89) rotate(45)"/><rect class="cls-2" x="497.84" y="114.12" width="124.83" height="124.83" transform="translate(288.92 -344.45) rotate(45)"/><rect class="cls-1" x="586.11" y="202.38" width="124.83" height="124.83" transform="translate(377.19 -381.01) rotate(45)"/><rect class="cls-2" x="674.37" y="290.65" width="124.83" height="124.83" transform="translate(465.45 -417.58) rotate(45)"/><rect class="cls-1" x="762.64" y="378.92" width="124.83" height="124.83" transform="translate(553.72 -454.14) rotate(45)"/><rect class="cls-2" x="321.31" y="114.12" width="124.83" height="124.83" transform="translate(237.22 -219.63) rotate(45)"/><rect class="cls-1" x="409.57" y="202.38" width="124.83" height="124.83" transform="translate(325.48 -256.19) rotate(45)"/><rect class="cls-2" x="497.84" y="290.65" width="124.83" height="124.83" transform="translate(413.75 -292.75) rotate(45)"/><rect class="cls-1" x="586.11" y="378.92" width="124.83" height="124.83" transform="translate(502.01 -329.31) rotate(45)"/><rect class="cls-2" x="674.37" y="467.18" width="124.83" height="124.83" transform="translate(590.28 -365.87) rotate(45)"/><rect class="cls-1" x="233.04" y="202.38" width="124.83" height="124.83" transform="translate(273.78 -131.36) rotate(45)"/><rect class="cls-2" x="321.31" y="290.65" width="124.83" height="124.83" transform="translate(362.04 -167.92) rotate(45)"/><rect class="cls-1" x="409.57" y="378.92" width="124.83" height="124.83" transform="translate(450.31 -204.48) rotate(45)"/><rect class="cls-2" x="497.84" y="467.18" width="124.83" height="124.83" transform="translate(538.57 -241.04) rotate(45)"/><rect class="cls-1" x="586.11" y="555.45" width="124.83" height="124.83" transform="translate(626.84 -277.61) rotate(45)"/><rect class="cls-2" x="144.78" y="290.65" width="124.83" height="124.83" transform="translate(310.34 -43.1) rotate(45)"/><rect class="cls-1" x="233.04" y="378.92" width="124.83" height="124.83" transform="translate(398.6 -79.66) rotate(45)"/><rect class="cls-2" x="321.31" y="467.18" width="124.83" height="124.83" transform="translate(486.87 -116.22) rotate(45)"/><rect class="cls-2" x="497.84" y="643.71" width="124.83" height="124.83" transform="translate(663.4 -189.34) rotate(45)"/><rect class="cls-1" x="56.51" y="378.92" width="124.83" height="124.83" transform="translate(346.9 45.17) rotate(45)"/><rect class="cls-2" x="144.78" y="467.18" width="124.83" height="124.83" transform="translate(435.16 8.61) rotate(45)"/><rect class="cls-1" x="233.04" y="555.45" width="124.83" height="124.83" transform="translate(523.43 -27.95) rotate(45)"/><rect class="cls-2" x="321.31" y="643.71" width="124.83" height="124.83" transform="translate(611.7 -64.51) rotate(45)"/><rect class="cls-1" x="409.57" y="731.98" width="124.83" height="124.83" transform="translate(699.96 -101.07) rotate(45)"/><path class="cls-2" d="M628,790.46a70,70,0,0,0-7.19-11.92,60.34,60.34,0,0,0-.06-14.69,65.17,65.17,0,0,0-16.82-37.24,111.38,111.38,0,0,0-28.54-22.9l-.43-1.39c3-6.46,4.66-14.66,3.26-24.83-1.61-11.57-6.83-22.15-15.48-31.4a56.73,56.73,0,0,0-7.82-7c-.67-2.38-1.25-4.81-1.79-7.16-2.28-10-3.86-20.32-5.22-29.94-1.48-10.41-2.79-21.84-4.11-36-.92-9.73-1.65-20.43-2.23-32.7-.63-13.31-.79-26.35-.47-38.76,0-2,.2-4.14.4-6.38,2.3-.84,4.64-1.66,7.1-2.53l1.89-.66a87.55,87.55,0,0,0,15.71-7.08,51.32,51.32,0,0,0,11-8.46c12.23-12.54,14.1-30.18,4.78-44.93a42.38,42.38,0,0,0-16.53-15.33c-1.48-.76-3.18-1.6-5.1-2.43a43.9,43.9,0,0,0-3.86-9.57,52.73,52.73,0,0,0-2.76-4.51A36.68,36.68,0,0,0,555.25,351l-.4-.61c.34-1.38.74-2.84,1.19-4.4a6.76,6.76,0,0,1,1.49-2.52A109.63,109.63,0,0,1,569,332.22c3.9-3.41,8.33-7.27,12.59-11.62a58.17,58.17,0,0,0,15.63-29.37,41.9,41.9,0,0,0-1-20.88,58.18,58.18,0,0,0-6-13.16,79.68,79.68,0,0,0-19.62-21.66,102.36,102.36,0,0,0-16.51-10.3,25.87,25.87,0,0,0,8.77-16.78l0-.27a33.28,33.28,0,0,0,.17-4q0-7,0-14c0-11.33,0-23-.43-34.81l0-.83c0-1.34-.09-3-.27-4.89-.24-2.49-.65-4.73-.93-6.18a25.93,25.93,0,0,0-21.94-21,32.23,32.23,0,0,0-2.18-6.64,68.79,68.79,0,0,0-13-19.35,136.15,136.15,0,0,0-13.07-11.71l-.77-.63a52.12,52.12,0,0,0-14.95-8.31A77.25,77.25,0,0,0,469.82,71h-1.07a39.45,39.45,0,0,0-16.27,3.21l-.91.26-.08,0a81.17,81.17,0,0,0-38.22,25,67.5,67.5,0,0,0-10.12,15.92,33.36,33.36,0,0,0-2.43,7.42c-12.57,2.19-20.48,10.56-22.4,23.82a54,54,0,0,0-.52,6.23c-.4,9.94-.39,19.81-.38,29.36v8.09c0,4.65,0,9.39,0,14a33.92,33.92,0,0,0,1,8.16,26,26,0,0,0,8,13.2,101.41,101.41,0,0,0-18.15,11.82A77.58,77.58,0,0,0,350,259a56.13,56.13,0,0,0-6,15.06,41,41,0,0,0,.41,20.32,56.94,56.94,0,0,0,13.4,24.88,150.21,150.21,0,0,0,18,16.35c2.22,1.73,4.46,3.6,6.82,5.57l.91.75a23.75,23.75,0,0,0,1.36,3.43,41.81,41.81,0,0,1,1.68,5.43c-.4.62-.79,1.24-1.16,1.89a37.15,37.15,0,0,0,2.53,40.43,44.68,44.68,0,0,0-6,12.37c-.17.55-.32,1.11-.46,1.67a63.78,63.78,0,0,0-7.68,4,41.23,41.23,0,0,0-18.21,23.42,34.27,34.27,0,0,0,2.75,26.67,40.28,40.28,0,0,0,9.42,11.44,61.38,61.38,0,0,0,16,9.67,99.77,99.77,0,0,0,9.59,3.51c2.3.71,4.68,1.56,7.31,2.59.79,9.2.79,18.39.68,26.22-.14,10.33-.44,19.43-.91,27.84-.71,12.61-1.62,24.24-2.76,35.54-1.11,11-2.17,19.9-3.31,28-1.78,12.61-3.53,23.1-6.27,33.3,0,.07,0,.15-.07.23A58.91,58.91,0,0,0,368,666.35a47.7,47.7,0,0,0-1.81,30.14,45.64,45.64,0,0,0,2.27,6.3q-.87,2.87-1.72,5.79a129.12,129.12,0,0,0-14.51,8.06,64,64,0,0,0-27.31,37.8,67.3,67.3,0,0,0-2.36,18.23,50.8,50.8,0,0,0,.48,6.74c-9.8,13.23-14.12,27.7-12.84,43a46.73,46.73,0,0,0,2,9.54c.14.46.32,1.09.38,1.32a24.18,24.18,0,0,0,13.85,17c.8.37,1.6.71,2.52,1.07a449,449,0,0,0,81.88,23.93c13.56,2.58,26,4.41,37.93,5.6,6.34.63,12.42,1,19.16,1.37,1.46.07,3,.11,4.55.11,4.74,0,9.26-.36,13.25-.69l1.22-.1a400.29,400.29,0,0,0,42.45-5.8,442,442,0,0,0,76.18-21.41c1.5-.57,3-1.16,4.48-1.75,1.84-.72,3.58-1.41,5.29-2a26,26,0,0,0,16.58-19c.12-.55.26-1.1.4-1.65A50.38,50.38,0,0,0,634,818.1,60.27,60.27,0,0,0,628,790.46Z"/><path class="cls-1" d="M492,209.2c.68-.32.94-.55,1.22-.56a53.38,53.38,0,0,0,8.05-1.11,27.23,27.23,0,0,1,6.25-.24c3,.14,6.06.26,9.07.54a72.93,72.93,0,0,0,11,.25,84.19,84.19,0,0,1,9.39.33c2.19.13,3.07-.6,3.33-2.72a10.61,10.61,0,0,0,0-1.26c-.12-16.08.09-32.18-.47-48.26,0-1.46-.07-2.93-.21-4.38s-.35-2.69-.61-4a3.1,3.1,0,0,0-3-2.75c-2.08-.18-4.15-.44-6.24-.51-7.31-.26-14.62-.53-21.93-.62-2.39,0-4.39-1.2-6.62-1.68-.88-.2-1.4-1.21-1.72-2.12a.75.75,0,0,1,.52-1,13.37,13.37,0,0,1,1.52-.35c2.73-.69,5.48-1.34,8.19-2.11a12.66,12.66,0,0,0,4.41-2.33,7.15,7.15,0,0,0,2.29-9.2,46.11,46.11,0,0,0-8.7-13A122.69,122.69,0,0,0,496,101.8a29.8,29.8,0,0,0-8.51-4.62,54.45,54.45,0,0,0-18.08-3.4,17,17,0,0,0-8.51,1.64,15,15,0,0,1-2.69.84,58.55,58.55,0,0,0-27.67,18.12A44.59,44.59,0,0,0,423.87,125c-1.91,4.12-1,7.52,2.78,10.08a13.69,13.69,0,0,0,4.24,2c2.43.62,4.9,1.1,7.28,1.86,5.34,1.71,10.94,1.35,16.38,2.3,3,.52,6,1,8.95,1.52a3.65,3.65,0,0,1,1,.53c-.09.72-.61.58-.94.59-1,.06-2.09.05-3.13,0a102.35,102.35,0,0,0-15.94.92,37.75,37.75,0,0,1-9.38.11,96.21,96.21,0,0,0-10.32-.48c-6.27,0-12.54.24-18.79.73-3.89.31-4.6,1-5.17,4.88a35.78,35.78,0,0,0-.28,3.74c-.5,12.22-.34,24.45-.37,36.67q0,6.9,0,13.79a11.86,11.86,0,0,0,.29,2.79,2.73,2.73,0,0,0,3,2.26c3.48-.68,6.86.32,10.28.47,4.9.23,9.79.72,14.68,1.1l1.25.08a1.08,1.08,0,0,1,1.15,1.2c-.17,4,0,7.94-.56,11.89a5,5,0,0,1-3.5,4.34q-2.81,1-5.52,2.21a18.94,18.94,0,0,0-9.19,8.21,4.22,4.22,0,0,1-2.56,2.09c-1.88.63-3.74,1.32-5.6,2a77.63,77.63,0,0,0-21.31,12.39,54.81,54.81,0,0,0-13,15.16,33.45,33.45,0,0,0-3.6,9,18.89,18.89,0,0,0,.33,9.3,34.29,34.29,0,0,0,8.05,15.05,129,129,0,0,0,15.31,13.88c2.63,2.06,5.19,4.19,7.75,6.32a79.25,79.25,0,0,0,18.93,11.55c2.76,1.22,5.47,2.59,8.19,3.9.29.13.59.37.47.71s-.62.44-1,.36l-.3-.09c-5.49-2-11.26-3.16-16.62-5.55a2.55,2.55,0,0,0-1.79-.42c-.48.52,0,1,.18,1.39a70.85,70.85,0,0,1,4.9,20.33,3.26,3.26,0,0,1-1.34,3.26,15.93,15.93,0,0,0-4.05,4.74,14.12,14.12,0,0,0,2.8,17.18,8.62,8.62,0,0,0,6.53,2.53,2.21,2.21,0,0,1,2.46,1.44,18.22,18.22,0,0,1,1.31,3.85c.14.72.23,1.44.39,2.16.28,1.3.39,1.46,1.61,1.4,4.25-.21,8.28.91,12.36,1.78a3.3,3.3,0,0,1,.89.28.93.93,0,0,1,.33.48.32.32,0,0,1-.28.47c-.61.09-1.23.19-1.85.23-2.39.16-4.79.32-7.19.42a34.69,34.69,0,0,0-6.77,1.2,14.85,14.85,0,0,0-6.55,3.5,24.32,24.32,0,0,0-7.4,11.06c-.91,3-.33,5.07,2.05,7a23.32,23.32,0,0,0,8.24,4.38A122.84,122.84,0,0,0,430.21,427c5.17.68,10.3,1.69,15.44,2.58.37.06.86,0,1,.51-.38.67-1.07.53-1.62.51-2.29-.1-4.6-.16-6.87-.46a17.53,17.53,0,0,0-5.6.07,22.12,22.12,0,0,1-6.55.27q-6.37-.72-12.76-1.47a14.41,14.41,0,0,1-7.45-3,5,5,0,0,0-4.08-1,41.24,41.24,0,0,0-16.12,5.73,18.53,18.53,0,0,0-8.3,10.64,11.32,11.32,0,0,0,1,9.08,18.1,18.1,0,0,0,4.21,5,39.17,39.17,0,0,0,10.21,6.05,73.36,73.36,0,0,0,7.35,2.69,144.31,144.31,0,0,1,14.07,5.28,51.56,51.56,0,0,0,6.54,2.15,22.83,22.83,0,0,1,5.26,2,21.63,21.63,0,0,0,5.54,2.11,36.9,36.9,0,0,1,8,2.71c1.4.71,3.09.62,4.35,1.71-.25.45-.69.29-1,.24a31.85,31.85,0,0,0-6.24-.36,81.79,81.79,0,0,1-12.8-1c-.82-.13-1.21.23-1.14,1,.19,1.87.44,3.73.61,5.6a280.88,280.88,0,0,1,.85,29.44c-.13,9.61-.4,19.22-.94,28.82q-1,18.3-2.84,36.55c-1,9.67-2.07,19.32-3.43,28.94a299.3,299.3,0,0,1-6.81,36c-.6,2.21-1.39,4.38-2.05,6.57a6.83,6.83,0,0,1-3.29,4,36.49,36.49,0,0,0-15.54,18.68,25.3,25.3,0,0,0-1.09,16,28,28,0,0,0,1.31,3.51,7.78,7.78,0,0,0,3.3,3.67,43.08,43.08,0,0,0,5.3,2.67c4.73,2,9.55,3.64,14.39,5.3a.83.83,0,0,1,.67.75,18.81,18.81,0,0,0-6.08.41,13.34,13.34,0,0,1-5.3-.16c-2.86-.57-5.72-1.19-8.58-1.79-1-.21-1.34,0-1.7.85a24.56,24.56,0,0,0-.82,2.37q-1,3.45-2.05,6.91c-.47,1.6-.31,1.73,1.45,1.35,2-.44,4.08-.91,6.13-1.28a59.3,59.3,0,0,1,15.9-1c3,.28,6.06.05,9,.74a9.15,9.15,0,0,1,3.18,1.08,9.88,9.88,0,0,1-3.22.87c-7.62.76-15,2.62-22.4,4.5a114.79,114.79,0,0,0-34.14,14.58c-9.12,5.87-14.83,14.23-17.65,24.61a44.38,44.38,0,0,0-1.56,12.09,32,32,0,0,0,1.7,9.84,6.73,6.73,0,0,0,2.51,3.47,76.36,76.36,0,0,0,12.71,7.38,112.72,112.72,0,0,0,26.09,8.7c5.11,1.07,10.2,2.27,15.38,2.91s10.55,1.42,15.88,1.68c1.31.07,2.68-.06,3.75.5.23.46.15.63-.14.65-3.65.19-7.29.5-10.94.52-6.16,0-12.31-.3-18.45-.87A151.63,151.63,0,0,1,362.87,801a54.71,54.71,0,0,1-18.32-9.33,5.08,5.08,0,0,0-.77-.54.87.87,0,0,0-1.12.2,4.57,4.57,0,0,0-.43.45c-6.61,8.46-10.27,17.87-9.35,28.78.23,2.74,1.31,5.26,1.88,7.91a1.68,1.68,0,0,0,1,1.1c.48.22,1,.41,1.45.61A423.77,423.77,0,0,0,415,852.9c11.91,2.27,23.87,4.11,35.93,5.31,6,.6,12.08.95,18.13,1.28a119.86,119.86,0,0,0,16-.62,376.91,376.91,0,0,0,40-5.47,418.52,418.52,0,0,0,72.28-20.31c3.32-1.27,6.6-2.62,9.93-3.86a3.28,3.28,0,0,0,2.32-2.63c.66-3,1.61-5.81,1.66-8.9a37.42,37.42,0,0,0-3.77-17.28c-2.58-5.32-5.75-10.18-10.51-13.85-1.52-1.16-1.5-1.23-.82-3.16a42.07,42.07,0,0,0,1.86-6.63,34.79,34.79,0,0,0,.08-10.29,42.52,42.52,0,0,0-11-24.47,88.27,88.27,0,0,0-24.51-19.28c-1.3-.67-2.6-1.34-3.94-1.9a3.94,3.94,0,0,1-2.32-2.39c-.76-2.17-1.59-4.31-2.28-6.5-1.22-3.88-2.21-7.85-4.48-11.32a1.21,1.21,0,0,1,.17-1.68l.45-.45c5-5,6.36-11.11,5.42-17.87-1-7.41-4.54-13.61-9.57-19a31,31,0,0,0-7.84-6.21,6.84,6.84,0,0,1-3.26-4A117.23,117.23,0,0,1,530.88,637c-2.39-10.5-4.06-21.13-5.57-31.78-1.75-12.31-3.08-24.67-4.24-37.05-1.06-11.23-1.76-22.49-2.3-33.76-.63-13.47-.83-26.94-.49-40.42.12-4.39.58-8.76,1-13.13.47-5.31,3.56-8.77,7.91-11.3a33.87,33.87,0,0,1,5.15-2.28c3.52-1.32,7.07-2.55,10.62-3.79a66,66,0,0,0,11.71-5.23,29.5,29.5,0,0,0,6.22-4.72c4.87-5,5.53-11,1.81-16.86a19.77,19.77,0,0,0-7.68-7.2,41,41,0,0,0-15.11-4.88,8.83,8.83,0,0,1-1.54-.25.87.87,0,0,1-.64-1.2c.09-.3.16-.61.27-.9,1.74-5,.87-9.71-1.56-14.2a25.3,25.3,0,0,0-11.06-10.75,6.68,6.68,0,0,0-.87-.37,2.22,2.22,0,0,1-1.49-2.17,19.71,19.71,0,0,1,1.45-9.2c.56-1.35,1.21-2.18,3-2,2.51.23,4.63-1.06,6.43-2.76A14.09,14.09,0,0,0,536,363.24a15.14,15.14,0,0,0-3.75-4.18,3.24,3.24,0,0,1-1.33-3.26,67.73,67.73,0,0,1,1.32-9c.56-2.45,1.2-4.87,1.9-7.28a29.44,29.44,0,0,1,6-10.89A130.77,130.77,0,0,1,554,315.05c3.86-3.37,7.71-6.74,11.29-10.4a35.38,35.38,0,0,0,9.59-18,19,19,0,0,0-.51-9.58,35.2,35.2,0,0,0-3.63-8,56.4,56.4,0,0,0-14-15.46,80.91,80.91,0,0,0-21.94-11.9c-1.28-.46-2.56-.92-3.86-1.32a3.4,3.4,0,0,1-2.14-1.68c-2.62-4.88-6.94-7.66-12-9.57-1-.37-1.94-.77-2.94-1.07a4.79,4.79,0,0,1-3.62-4.58c-.22-2.5-.37-5-.54-7.5-.07-1.15-.09-2.3-.16-3.44a1.2,1.2,0,0,0-1.19-1.21c-.62-.06-1.25-.17-1.87-.17A49.8,49.8,0,0,1,496,210C494.74,209.76,493.44,210,492,209.2Zm-35.5,118.85a11,11,0,0,1,1.54.24,120.73,120.73,0,0,0,28.22,4.86c.31,0,.81-.16.91.43a4.57,4.57,0,0,1-2.37.7c-3.33.13-6.66.21-10,.29a5.39,5.39,0,0,1-2.1-.5c-1.35-.53-2.73-1-4.12-1.44-3.26-1.07-6.53-2.09-9.78-3.19-.84-.29-1.84-.44-2.24-1.46-.24.07-.48.18-.63-.13,0,0,.14-.12.16-.1S456.32,328,456.45,328.05Zm60.4-84.83-.06-.06c1.44,0,2.43,1.11,3.64,1.67,3.68,1.73,7.42,3.39,10.91,5.47,4.12,2.46,8.37,4.69,12.59,7a59.88,59.88,0,0,1,12.67,9.12,22.78,22.78,0,0,1,4.11,5.11c.72,1.26,1.22,2.68,2,3.86a11.83,11.83,0,0,1,1.78,6.54,12.2,12.2,0,0,1-4.7,10.43c-3.44,2.85-7.44,4.87-11.28,7.38,0-.42-.08-.67,0-.78.84-1.06,1.68-2.13,2.59-3.13,1.82-2,3.7-4,5.53-6a.61.61,0,0,0-.14-1c-.82-.44-1.7-.8-2.52-1.25-9.94-5.36-15.95-13.52-17.64-24.76a7.17,7.17,0,0,1,.32-4.3c.43-.89.09-1.36-.67-1.73-4.11-2-8.22-4.09-12.34-6.11-.46-.23-1-.28-1.47-.51a1.6,1.6,0,0,0-2,.38,12.63,12.63,0,0,1-5.12,2.93,100.27,100.27,0,0,1-11.89,2.7,73.25,73.25,0,0,1-11.56.51,83.46,83.46,0,0,1-13.13-.51c-.54-.09-1.22.08-1.66-.68,2.25-.14,4.43-.23,6.6-.4a90.43,90.43,0,0,0,12.71-1.68,10.55,10.55,0,0,0,7.44-5.23,15.57,15.57,0,0,1,1.2-1.83c1.81-2.42,1.61-4.82,0-7.26a13.26,13.26,0,0,0-3-3.2,19.16,19.16,0,0,0-4.76-2.34c-1.84-.72-3.67-1.48-5.49-2.26-.34-.14-.78-.32-.52-.93a25.48,25.48,0,0,1,7.73.58,52.92,52.92,0,0,1,16.28,5.36,11,11,0,0,1,4.74,4.84c.28.54.8,1.12.48,1.74s-1.09.09-1.66.15ZM459.5,352.54a1.86,1.86,0,0,1-1.94.65c-1.83-.24-3.66-.48-5.48-.81a2.11,2.11,0,0,1-1.69-.92c2.73,0,5.34,0,7.95.23.19,0,.36.19.54.29,1-1.08,2.43-1.12,3.76-1.26s2.92-.16,4.38-.23a35.12,35.12,0,0,0,7.13-.95,8.08,8.08,0,0,0,5.2-4.2c1.5-2.77.86-3.07-1.85-3h-.94c-4.38-.16-8.78-.13-13.15-.54a103.51,103.51,0,0,1-25-5.65,56.31,56.31,0,0,1-15.93-8.58c-.31-.24-.71-.47-.38-1a7,7,0,0,1,2.84,1.12,45.18,45.18,0,0,0,9.89,3.88A243.85,243.85,0,0,0,469,338.1a65.61,65.61,0,0,0,19-.69c4-.71,7.92-1.84,11.89-2.75a47.2,47.2,0,0,0,9.43-3.33c4.83-2.25,9.5-4.82,14.19-7.33a57.21,57.21,0,0,0,8.2-5.18c.38-.3.73-.79,1.45-.51a4.65,4.65,0,0,1-1.14,2.07,82.15,82.15,0,0,0-8.23,15.46,66.89,66.89,0,0,0-4.47,17.55,7.33,7.33,0,0,0,1.52,5.83,13.24,13.24,0,0,1,2.51,7.59c-.79-.15-.89-.73-1.11-1.17a11.07,11.07,0,0,0-4-4.35c-1.66-1.09-3.34-2.14-5-3.18a28.92,28.92,0,0,0-13-4.23l-9.68-.78a113.5,113.5,0,0,0-16.9-.14c-3.85.25-7.72.24-11.58.35A3.12,3.12,0,0,1,459.5,352.54Zm67.41,342.81a3.6,3.6,0,0,1,.26-1,14,14,0,0,0,1.89-6.24c.6-4.84-.69-9.32-2.55-13.69a4.78,4.78,0,0,0-.89-1.27c-4.48-4.73-9.26-9-15.49-11.45a40,40,0,0,1-5.59-2.81c-4.6-2.68-9.16-5.43-13.5-8.54a44.37,44.37,0,0,0-4.2-2.73,39.55,39.55,0,0,1-12-10.85,57.28,57.28,0,0,0-3.81-4.57,32.55,32.55,0,0,1-5.22-7.4A53.16,53.16,0,0,1,460,606.44a46.25,46.25,0,0,1-.71-6.85c0-.46-.09-1.08.77-1.08.2.46.45.92.62,1.41A70.42,70.42,0,0,0,466.5,612c1.78,3,3.51,5.94,5.31,8.87.93,1.51,2,3,3,4.41.91,1.27,1.22,1.26,2.45.14a27.18,27.18,0,0,0,3.71-4.24,47.37,47.37,0,0,0,8.5-21.67c1.41-11.41-1-22.24-6-32.53a21.94,21.94,0,0,0-5.17-6.64c-1.08-1-2.21-1.91-3.3-2.89-.92-.82-1-1.1-.37-2.14a17.78,17.78,0,0,0,2.4-6.08c1-5.4-.32-10.36-2.79-15.11a10.2,10.2,0,0,1-1.45-2.72,1.5,1.5,0,0,1,1.35-.69c1.15-.09,2.29-.19,3.44-.25a20.54,20.54,0,0,0,13.53-5.76,36.69,36.69,0,0,0,11.44-21.09c.27-1.65.55-3.29.83-4.94.05-.28.1-.65.53-.55s.42.41.44.73a51.59,51.59,0,0,1-.11,10.32,39.94,39.94,0,0,0-.56,7.8c.3,5.43.56,10.85.83,16.27.4,8,.76,16.07.71,24.12,0,4.7.09,9.41.24,14.1.27,8.57,1.06,17.1,1.82,25.63a163.75,163.75,0,0,0,2.26,17.39c1,5,2.22,10,3.11,15,.78,4.44,1.8,8.8,3,13.13,1,3.83,2.4,7.57,3,11.52a4.14,4.14,0,0,0,1.78,2.82,28.35,28.35,0,0,1,5.57,5.48c1,1.24,2,2.43,3,3.65,4.51,5.51,6.67,11.73,5.75,18.9a16.1,16.1,0,0,1-3.21,8.05A4.94,4.94,0,0,1,526.91,695.35Zm-56,43c7.27-.45,14.06.25,20.83-.45,4.25-.43,8.52-.63,12.75-1.42,6.31-1.18,12.07-4,18.11-6a10.87,10.87,0,0,0,2-1c4.79-2.68,7.38-6.65,7.08-12.27a31,31,0,0,0-.36-3.73,48.2,48.2,0,0,0-1.8-7.29,12.56,12.56,0,0,1-.44-1.81,1,1,0,0,1,.45-1.09,1.17,1.17,0,0,1,1.19.1,11.71,11.71,0,0,1,4.46,4.72,24,24,0,0,1,3.31,13.49c-.07,1.15-.13,2.3-.14,3.44,0,1.49.06,1.58,1.37,2.06,2,.72,4,1.3,5.86,2.17,6.9,3.14,18.27,12.14,22.82,18.28,5.64,7.61,9,16,7.72,25.72-.13.93-.26,1.86-.36,2.8a17.89,17.89,0,0,1-2.39,7.06c-.26.45-.53.9-.76,1.37a.67.67,0,0,0,.2.84,7.15,7.15,0,0,0,1,.68,40.1,40.1,0,0,1,13,11.16c3.73,5,6.57,10.42,7.27,16.74.14,1.24.13,2.5.15,3.75,0,.62.08,1.4-.65,1.6-.53.13-.87-.48-1.15-.91-.91-1.41-1.82-2.81-2.7-4.22-4.82-7.72-11.08-13.81-19.47-17.58a33.29,33.29,0,0,0-9-2.55,10,10,0,0,0-6.13.69,14.75,14.75,0,0,1-2.63,1c-6.3,1.84-12.59,3.78-18.95,5.42-3.93,1-8,1.52-12,2.34a61.21,61.21,0,0,1-7.71,1.33c-3.64.25-7.3.4-10.94.7a51,51,0,0,1-7.82.07,79.22,79.22,0,0,0-14.69.1,3.11,3.11,0,0,1-2.14-.2c.25-.41.68-.4,1.07-.46,4.22-.63,8.46-1.19,12.68-1.89,3.6-.59,7.27-.68,10.84-1.55,11.77-2.89,23.4-6.22,34.84-10.2.69-.24,1.38-.5,2-.79q7.92-3.39,15.49-7.5c1.64-.9,3.16-2,4.72-3.08a1.7,1.7,0,0,0,.78-1.9c-.42-1.93-.78-3.89-1.32-5.79a9,9,0,0,0-3.05-4.65A41.87,41.87,0,0,0,548,762.1a99.1,99.1,0,0,0-14-5.38,29.71,29.71,0,0,0-4.6-.91c-3.31-.43-6.62-.88-9.95-1.08s-6.87-.47-10.29.26a2.42,2.42,0,0,1-2.07-.21,9.14,9.14,0,0,1,3-1.12c5.9-1.61,11.95-1.57,18-1.61,1.22,0,2.71.89,3.58,0s.11-2.39.23-3.62c0-.21,0-.42,0-.63a18.24,18.24,0,0,0-3.42-10.24c-.75-1.12-1.53-1.9-3.09-1.31-1.06.4-2.28.35-3.37.67-5.42,1.62-11,2.34-16.58,3.23a76.79,76.79,0,0,1-12.49.65c-6.28,0-12.45-1.22-18.69-1.72A29,29,0,0,1,470.87,738.33ZM449.08,465.77a1.71,1.71,0,0,1,1.48-.51c6.18.06,12.28-.9,18.41-1.41a145.45,145.45,0,0,0,16.12-2.3c4.91-1,9.86-1.84,14.48-3.91,3.42-1.54,6.86-3.06,10.23-4.72a59.57,59.57,0,0,0,5.37-3.22,12.47,12.47,0,0,0,2.18-1.78c1.73-1.79,1.8-3.6.3-5.64A8.8,8.8,0,0,0,514,439.4c-1.72-.74-3.5-1.35-5.25-2-.77-.3-1.53-.64-2.29-1-.08,0-.18-.18-.16-.24s.12-.47.25-.52a9.7,9.7,0,0,1,1.48-.45,37.72,37.72,0,0,0,7.72-2.53c.63-.3,1.42-.5,1.57-1.46-1.29-.33-2.44.37-3.65.51q-8.86,1-17.78,1.47c-2.92.14-5.85,0-8.78.05-4.39.14-8.77-.22-13.15-.39a8.26,8.26,0,0,1-4-.92,5.27,5.27,0,0,1,2.48-.74c4-.69,8-1.41,12.06-2a106.1,106.1,0,0,0,20-5.09,48,48,0,0,0,5.15-2.27,13.83,13.83,0,0,0,4.54-3.79,8,8,0,0,0-1.32-11.14,26.07,26.07,0,0,0-10.13-4.72c-2.09-.52-4.18-1-6.46-1.55a2.44,2.44,0,0,1,1.73-1.1A21.86,21.86,0,0,0,504.9,396a6.47,6.47,0,0,0,2.79-5,42.89,42.89,0,0,1,.54-4.66c.16-.77-.18-1.16-1-1.17-2.3,0-4.6,0-6.9,0-.83,0-1.67,0-2.5,0-.39,0-.95.07-1.05-.38-.12-.6.49-.56.86-.61.72-.11,1.45-.15,2.18-.22a51.32,51.32,0,0,0,11.05-2.15c.39-.13.77-.31,1.17-.43a.84.84,0,0,1,1.08.8,9.33,9.33,0,0,1-.05,2.18c-.83,4.34-.69,8.73-.9,13.11-.1,2.08.28,3.59,2.34,4.52a20.35,20.35,0,0,1,3.36,2.29,22.49,22.49,0,0,1,7,8.69,16.43,16.43,0,0,1,.43,13.38c-.34.92-1.54,1.81-.83,2.79s1.95.46,3,.63a28.43,28.43,0,0,1,12,4.41,15.68,15.68,0,0,1,5.32,6.05,8.65,8.65,0,0,1-2,10.58,16.84,16.84,0,0,1-3.3,2.37,33.75,33.75,0,0,1-5.43,2.41,116.4,116.4,0,0,0-14.67,6.28,16.74,16.74,0,0,0-7.34,7c-.6,1.1-1.12,2.24-1.66,3.37q-.54,1.13-1.05,2.28a5.41,5.41,0,0,1-1.76,2.88c.85-3.48.37-6.52,1.24-9.46a15.89,15.89,0,0,1,2-4.24c.38-.58,1.08-1,1-1.87-.88-.31-1.63.17-2.41.39-4.13,1.13-8.2,2.51-12.45,3.11-5.07.72-10.13,1.46-15.22,2a90.78,90.78,0,0,1-17.21-.09c-3-.25-6-.64-9-.8-1-.06-2.08-.17-3.12-.26A10.09,10.09,0,0,1,449.08,465.77Zm15.76-364.54c.9-.17,1.8-.43,2.72-.51a23.11,23.11,0,0,1,3.43,0c1.67.11,3.33.29,5,.49a30.51,30.51,0,0,1,12,4.1,75.2,75.2,0,0,1,8.26,5.64,39.5,39.5,0,0,1,10.85,13.58,16.06,16.06,0,0,1,.81,2,1,1,0,0,1-.61,1.28c-1.13.6-2.14.94-3.29-.2-.49-.48-1.57-.38-2.4-.48-2.07-.24-4.15-.4-6.21-.66a25.13,25.13,0,0,1-16.07-8.83c-3-3.36-5.08-7.15-5-11.82,0-1-.52-1.43-1.38-1.79C470.4,102.91,467.67,102.31,464.84,101.23Zm-1.31,129.13c-.1.54-.43.59-.72.64a116.69,116.69,0,0,0-13.06,3.18,40.12,40.12,0,0,0-13.31,6,27.29,27.29,0,0,0-9,11.4,3.77,3.77,0,0,1-3.18,2.58,46.23,46.23,0,0,0-14.54,4.65c-5.06,2.49-9.94,5.32-14.81,8.16a29.35,29.35,0,0,0-4.78,3.53c-4.86,4.32-8.61,9.35-10.28,15.75a1.86,1.86,0,0,1-.78,1.3c-.31-.21-.2-.52-.16-.8a69.3,69.3,0,0,1,2.67-11.26,14.83,14.83,0,0,1,2.88-5.16,38,38,0,0,1,8.51-7.8c2.37-1.53,4.69-3.13,7.07-4.65a63.47,63.47,0,0,1,15.21-7.26,31.08,31.08,0,0,1,7-1.74,2.92,2.92,0,0,0,2.66-1.84,4.41,4.41,0,0,1,.52-.78c2.05-2.77,4-5.68,6.81-7.73a38.34,38.34,0,0,1,14.91-7,72.11,72.11,0,0,1,10.23-1.41A27,27,0,0,1,463.53,230.36Zm38.86-76.7c1.2,0,1.82,0,2.43,0l24.68.71c.21,0,.42,0,.63,0,1.22.09,1.51.36,1.51,1.49a26.31,26.31,0,0,1-.15,2.81,95.27,95.27,0,0,0-.44,10c0,4,0,7.92,0,11.88,0,.43.23,1.06-.51,1.22-.15-.18-.35-.31-.41-.48-.24-.69-.44-1.39-.65-2.08a34.58,34.58,0,0,0-17.16-21,48.78,48.78,0,0,0-7.16-3.09A5.52,5.52,0,0,1,502.39,153.66ZM413,199.74c1.67-.08,3.09-.21,4.51-.2,3,0,6.06.27,9.08.1a167.13,167.13,0,0,1,16.9,0c4.58.19,9.17.45,13.75.7,1.77.1,3.54.35,5.31.37q6.57,0,13.15-.08a46.92,46.92,0,0,1,7.5.29,66.58,66.58,0,0,0,9.36.5c1.21,0,2.43.13,3.64.2-4.89.78-9.77,1.21-14.65,1.51-7.08.44-14.17.78-21.25,1.19-1.67.1-3.32.37-5,.51a26,26,0,0,1-3.74.18,150.74,150.74,0,0,1-16.84-1.41c-3.08-.52-6.17-1.15-9.28-1.42A49.51,49.51,0,0,1,413,199.74Z"/><path class="cls-1" d="M458.83,351.9l.7.71Z"/><path class="cls-1" d="M516.85,243.22c0-.41-.35,0,0-.19.13-.05.14.12-.1.13Z"/><path class="cls-1" d="M82.29,1085.31c-42.93,0-82.29-13.46-82.29-82,0-51.81,26.41-85.59,74.16-85.59,30.73,0,41.65,18.8,55.62,18.8,3.55,0,6.35-1.53,6.35-5.59,0-2.54-.51-5.33-.51-6.1,0-5.33,2.79-7.61,7.36-7.61,4.07,0,7.62,2.28,7.62,7.61,0,2.8-1,18.8-1.27,29.21-.25,8.38-.25,17.78-.25,24.13,0,7.11-1.53,12.19-11.18,12.7-20.57,0-34.28-8.89-42.41-29.21-7.87-19.81-10.16-28.7-21.84-28.7-14,0-22.35,15.49-22.35,51.05,0,42.16,11.18,66.54,49,66.54,21.08,0,34-8.13,34-24.13,0-5.08-1.53-9.65-1.53-12.44,0-4.83,3.05-8.64,8.89-8.64,5.08,0,8.89,2.54,8.89,9.14C150.6,1056.36,136.89,1085.31,82.29,1085.31Z"/><path class="cls-1" d="M292.31,1073.63c0-3.81,1.52-7.87,6.09-7.87,6.61,0,6.86-4.58,7.37-9.4,1-11.94.76-22.6.76-35.3,0-15-2-17-21.33-17-19.56,0-21.33,2-21.33,17,0,12.7-.26,23.36.76,35.3.51,4.82.76,9.4,7.36,9.4,4.57,0,6.1,4.06,6.1,7.87,0,4.82-1.53,7.87-6.1,7.87-10.66,0-21.58-.51-33.52-.51-14.22,0-26.92.51-39.62.51-3.81,0-6.86-3.55-6.86-8.38,0-4.57,2-8.13,6.86-8.13,1.52,0,3.56.77,5.59.77,6.35,0,6.85-7.88,7.36-16,1-17,1.27-37.34,1.27-57.4,0-13.71-.51-27.43-1.27-39.11-.51-8.13-1-16-7.36-16-2,0-4.07.76-5.59.76-4.83,0-6.86-3.56-6.86-8.13,0-4.82,3-8.38,6.86-8.38,12.7,0,25.4.51,39.62.51,11.94,0,22.86-.51,33.52-.51,4.57,0,6.1,3,6.1,7.88,0,3.8-1.53,7.87-6.1,7.87-6.6,0-6.85,4.57-7.36,9.4-.76,9.14-.76,17.52-.76,27.17,0,12.7,1.52,14.48,21.33,14.48,20.82,0,21.33-3,21.33-14.48,0-9.65,0-18-.76-27.17-.51-4.83-.76-9.4-7.37-9.4-4.57,0-6.09-4.07-6.09-7.87,0-4.83,1.52-7.88,6.09-7.88,10.67,0,21.59.51,33.53.51,14.22,0,26.92-.51,39.62-.51,3.81,0,6.85,3.56,6.85,8.38,0,4.57-2,8.13-6.85,8.13-1.53,0-3.56-.76-5.59-.76-6.35,0-6.86,7.87-7.36,16-.77,11.68-1.27,25.4-1.27,39.11,0,20.06.25,40.38,1.27,57.4.5,8.12,1,16,7.36,16,2,0,4.06-.77,5.59-.77,4.82,0,6.85,3.56,6.85,8.13,0,4.83-3,8.38-6.85,8.38-12.7,0-25.4-.51-39.62-.51-11.94,0-22.86.51-33.53.51C293.83,1081.5,292.31,1078.45,292.31,1073.63Z"/><path class="cls-1" d="M424.62,1066c6.35,0,7.62-4.32,8.13-16.25.51-15.5,1.27-37.08,1.27-59.43,0-13-.51-26.16-1.27-37.34-.51-8.12-1-16-7.37-16-2,0-4.06.77-5.33.77-4.83,0-6.86-3.56-6.86-8.13s3.05-8.13,6.86-8.13c13.21,0,25.91,1,40.63,1,24.13,0,80.77-1,96-1,6.1,0,10.16,3.3,10.16,8.64,0,4.06-.76,11.17-.76,20.82,0,7.37,1,15,1,18,0,5.34-2.54,9.66-7.37,9.66-16.25,0-25.14-41.15-61.2-41.15-8.64,0-11.18,7.88-12.45,16-1.27,8.89-1.52,19.3-1.78,29.72,0,3.81,2,6.09,5.34,6.09,17.27,0,27.17-18.28,39.11-18.28,3,0,5.33,2,5.33,7.62,0,4.82-.76,10.15-.76,19.3,0,12.95.25,18,.25,22.6,0,5.84-3,6.86-6.09,6.86-11.68,0-17-22.61-37.33-22.61-4.32,0-5.85,2.54-5.85,6.86,0,14.22,0,28.95.77,38.1,1,11.17,3.55,15.23,12.95,15.23,38.85,0,46.73-42.66,63.74-42.66,4.58,0,6.35,3.81,6.35,8.12,0,3-1.52,10.92-1.52,18.29,0,10.92,1.52,18.54,1.52,23.37,0,5.58-3.55,9.39-9.14,9.39-18.29,0-65-1.52-97.78-1.52-14,0-34.28,1.52-41.14,1.52-4.83,0-6.86-3.55-6.86-8.38,0-4.57,3.05-7.87,6.86-7.87C421.32,1065.25,423.86,1066,424.62,1066Z"/><path class="cls-1" d="M625.25,1084c-4.57,0-8.38-2.54-8.38-7.11,0-5.59,1.52-20.82,1.52-30.73,0-9.14-1.52-16-1.52-20.32,0-5.33,2-9.39,9.14-9.39,18.79,0,37.84,51,73.65,51,9.65,0,19.05-5.33,19.05-17.52,0-11.18-5.84-18-39.87-26.16-44.45-10.92-59.18-28.19-59.18-56.89,0-25.39,18-49.27,59.68-49.27,31,0,41.15,16.26,50.29,16.26,3.81,0,6.35-1.53,6.35-4.32,0-2-.51-3.3-.51-5.08,0-4.83,3.3-7.36,7.37-7.36,5.33,0,7.62,2.28,7.62,9.14,0,7.87-.77,14-.77,23.36,0,5.84.51,16,.51,19.56,0,6.09-2.79,9.9-8.13,9.9-22.6,0-37.84-45.2-65.52-45.2-12.19,0-20.06,6.09-20.06,16.5,0,9.66,5.58,17,36.57,25.66,46.47,12.95,64,27.68,64,59.93,0,33.53-25.4,49.27-57.15,49.27-34.53,0-47.74-19-59.93-19-5.08,0-7.62,2.29-7.62,5.85,0,1.26.51,3.3.51,4.82C632.87,1081.5,629.57,1084,625.25,1084Z"/><path class="cls-1" d="M812.16,1084c-4.57,0-8.38-2.54-8.38-7.11,0-5.59,1.53-20.82,1.53-30.73,0-9.14-1.53-16-1.53-20.32,0-5.33,2-9.39,9.15-9.39,18.79,0,37.84,51,73.65,51,9.65,0,19-5.33,19-17.52,0-11.18-5.84-18-39.87-26.16-44.44-10.92-59.17-28.19-59.17-56.89,0-25.39,18-49.27,59.68-49.27,31,0,41.14,16.26,50.29,16.26,3.81,0,6.34-1.53,6.34-4.32,0-2-.5-3.3-.5-5.08,0-4.83,3.3-7.36,7.36-7.36,5.34,0,7.62,2.28,7.62,9.14,0,7.87-.76,14-.76,23.36,0,5.84.51,16,.51,19.56,0,6.09-2.8,9.9-8.13,9.9-22.6,0-37.84-45.2-65.52-45.2-12.19,0-20.07,6.09-20.07,16.5,0,9.66,5.59,17,36.57,25.66,46.48,12.95,64,27.68,64,59.93,0,33.53-25.39,49.27-57.14,49.27-34.54,0-47.74-19-59.93-19-5.08,0-7.62,2.29-7.62,5.85,0,1.26.5,3.3.5,4.82C819.78,1081.5,816.48,1084,812.16,1084Z"/><path class="cls-1" d="M273.35,1260.05c-30.31,0-58.11-9.51-58.11-57.93,0-36.59,18.65-60.44,52.37-60.44,21.7,0,29.41,13.27,39.28,13.27,2.51,0,4.48-1.08,4.48-4,0-1.79-.36-3.76-.36-4.3,0-3.77,2-5.38,5.2-5.38,2.87,0,5.38,1.61,5.38,5.38,0,2-.71,13.27-.89,20.62-.18,5.92-.18,12.56-.18,17,0,5-1.08,8.61-7.89,9-14.53,0-24.22-6.28-30-20.63-5.56-14-7.17-20.26-15.42-20.26-9.86,0-15.78,10.94-15.78,36,0,29.77,7.89,47,34.61,47,14.89,0,24-5.74,24-17,0-3.59-1.08-6.82-1.08-8.79,0-3.41,2.15-6.1,6.28-6.1,3.58,0,6.27,1.8,6.27,6.46C321.59,1239.6,311.91,1260.05,273.35,1260.05Z"/><path class="cls-1" d="M415.58,1155.31c-11.3,0-12.92,7.17-13.45,14.53-1.26,19.54-.9,48.6-.18,65.1.36,8.25,2.15,11.3,8.07,11.3,16.68,0,24.39-48.25,35.51-48.25,3.05,0,4.66,1.08,4.66,4.49,0,3-1.07,15.6-1.07,27.8,0,10.76,1.07,18.29,1.07,22.77a4.61,4.61,0,0,1-4.3,4.31c-10.58,0-40.36-.36-61-.36-9.87,0-24.39.36-29.24.36-3.4,0-4.84-3.23-4.84-5.74,0-3.23,2.15-5.74,4.84-5.74,1.08,0,2.87.54,3.41.54,4.49,0,5.38-3.05,5.74-11.48.72-17.4,1.26-47.35,0-68.15-.36-5.74-.72-11.48-5.2-11.48-1.43,0-2.87.54-3.95.54-3.4,0-4.84-3.23-4.84-5.74,0-3.23,2.15-5.74,4.84-5.74,9,0,17.94.36,28,.36,14.89,0,27.8-.36,41.43-.36,2.87,0,5,2.15,5,5.92,0,2.15-1.26,5.91-5,5.91C422.93,1156.2,419.7,1155.31,415.58,1155.31Z"/><path class="cls-1" d="M520.68,1193.87c0,27.8,2.87,42,21.17,42,13.27,0,19.91-7.18,19.91-25.65,0-33.54-18.66-50.22-18.66-60.44,0-4.13,2.51-5.38,4.84-5.38,5.39,0,11.84.53,17.22.53,6.1,0,12.2-.53,16.68-.53,4.13,0,5.92,2.15,5.92,4.84,0,2.51-.54,4-3,8.07-7.53,11.84-11.3,28-11.3,47.35v11.12c0,28.34-11.65,43.4-43.4,43.4-34.79,0-45.56-13.45-45.56-44.84,0-12.55.54-26,.54-41.07,0-15.78-.18-18.11-4.48-18.11-1.79,0-3.41.54-4.67.54-3.4,0-4.84-2.51-4.84-5.74,0-3.77,2.16-5.56,4.84-5.56,8.79,0,17.4.36,27.27.36,9.68,0,16.68-.36,25.46-.36,4.13,0,5.74,2.51,5.74,5.74,0,2.69-1.61,5.56-5.74,5.56-1.25,0-2.51-.54-3.76-.54-3,0-3.41,3-3.59,6.28C520.68,1171.63,520.68,1181.85,520.68,1193.87Z"/><path class="cls-1" d="M645.16,1256.64c-9.87,0-24.21.72-29.06.72-3.58,0-5-2.69-5-5.38,0-3.77,1.44-5.74,5-5.74.9,0,2.69.18,3.23.18,4.49,0,5.38-3.05,5.74-11.48.36-9,.9-20.8.9-33.9,0-13.45-.18-27.26-.9-38.92-.18-3.4-.72-6.81-5.2-6.81-1.43,0-2.87.54-3.77.54-3.4,0-4.84-2.52-4.84-5.74s2.15-5.74,4.84-5.74c9,0,17.76.36,27.8.36,12.38,0,35-.9,46.1-.9,21.88,0,34.61,7.35,34.61,25.29,0,16.32-6.1,23.85-28.52,24.57-2.51,0-3.94,1.26-3.94,3.23,0,1.79,1.79,2.69,3.94,2.69,24.75,1.07,32.65,7.35,32.65,26.9,0,20.09-9.87,30.85-44.3,30.85C673,1257.36,656.46,1256.64,645.16,1256.64Zm26.36-65.1c13.81,0,17.4-6.46,17.4-19.37,0-13.27-4.3-17-16-17-7.71,0-10.22,3.41-10.58,7a163.81,163.81,0,0,0-.9,21.17C661.48,1189,664,1191.54,671.52,1191.54Zm-9.14,43.4c.71,8.43,2.15,11.48,11.47,11.48,14,0,16.68-6.46,16.68-18.65,0-19.37-5-25.29-18.47-25.29-8.07,0-10.58,1.61-10.58,6.45C661.48,1217.9,661.84,1228.48,662.38,1234.94Z"/></g></g></svg>